<svg width="20" height="20" viewBox="0 0 20 20" fill="none" xmlns="http://www.w3.org/2000/svg">
<path d="M13.333 11.6665C13.333 12.3569 13.8927 12.9165 14.583 12.9165C15.2734 12.9165 15.833 12.3569 15.833 11.6665C15.833 10.9761 15.2734 10.4165 14.583 10.4165C13.8927 10.4165 13.333 10.9761 13.333 11.6665Z" stroke="#36393D" stroke-width="1.5"/>
<path d="M15.7497 6.6665C15.8043 6.39725 15.833 6.11856 15.833 5.83317C15.833 3.53198 13.9675 1.6665 11.6663 1.6665C9.36516 1.6665 7.49967 3.53198 7.49967 5.83317C7.49967 6.11856 7.52837 6.39725 7.58302 6.6665" stroke="#36393D" stroke-width="1.5"/>
<path d="M5.83366 6.66119H13.3337C15.6907 6.66119 16.8692 6.66119 17.6014 7.39378C18.3337 8.12637 18.3337 9.30545 18.3337 11.6636V13.3311C18.3337 15.6892 18.3337 16.8683 17.6014 17.6009C16.8692 18.3335 15.6907 18.3335 13.3337 18.3335H8.33366C5.19096 18.3335 3.61961 18.3335 2.6433 17.3567C1.66699 16.3799 1.66699 14.8078 1.66699 11.6636V9.99614C1.66699 6.85192 1.66699 5.27982 2.6433 4.30303C3.42921 3.51675 4.60069 3.3634 6.66699 3.3335H8.33366" stroke="#36393D" stroke-width="1.5" stroke-linecap="round"/>
</svg>
