<svg  viewBox="0 0 24 24" fill="none" xmlns="http://www.w3.org/2000/svg">
<path d="M3.04785 10.4917L3.04785 14.9955C3.04785 17.8263 3.04785 19.2417 3.92424 20.1211C4.80064 21.0005 6.21117 21.0005 9.03223 21.0005H13.0218" stroke="currentColor" stroke-width="1.5" stroke-linecap="round"/>
<path d="M7.03809 16.9976H11.0277" stroke="currentColor" stroke-width="1.5" stroke-linecap="round"/>
<path opacity="0.4" d="M18.5075 13.4946C20.4355 13.4946 21.9984 15.0335 21.9984 16.9318C21.9984 19.0791 19.8882 20.1348 18.8815 21.7445C18.667 22.0876 18.3635 22.0876 18.1335 21.7445C17.0954 20.196 15.0166 19.0344 15.0166 16.9318C15.0166 15.0335 16.5795 13.4946 18.5075 13.4946Z" stroke="currentColor" stroke-width="1.5" stroke-linejoin="round"/>
<path opacity="0.4" d="M18.5078 16.9976H18.5168" stroke="currentColor" stroke-width="2" stroke-linecap="round" stroke-linejoin="round"/>
<path d="M17.8044 2.00115L6.18887 2.02942C4.45523 1.9424 4.01072 3.24476 4.01072 3.8814C4.01072 4.4508 3.93547 5.28089 2.87293 6.84102C1.81039 8.40116 1.80241 8.65348 2.40157 9.73355C2.89884 10.6299 4.16367 10.9801 4.82316 11.039C6.9179 11.0854 7.93707 9.32044 7.93707 8.07997C8.97622 11.1969 11.9315 11.1969 13.2483 10.8405C14.5676 10.4834 15.6979 9.20523 15.9645 8.07997C16.1201 9.47837 16.592 10.2944 17.9865 10.8551C19.4309 11.4359 20.6731 10.5482 21.2963 9.97913C21.9196 9.41008 22.4074 8.35796 21.2964 6.9695C20.5302 6.01197 20.2108 5.1099 20.106 4.17498C20.0452 3.63325 19.9918 3.05114 19.6012 2.68071C19.0303 2.13936 18.2112 1.9751 17.8044 2.00115Z" stroke="currentColor" stroke-width="1.5" stroke-linecap="round" stroke-linejoin="round"/>
</svg>
